<svg width="32" height="32" viewBox="0 0 32 32" xmlns="http://www.w3.org/2000/svg">
  <!-- Background circle with gradient -->
  <defs>
    <linearGradient id="bgGradient" x1="0%" y1="0%" x2="100%" y2="100%">
      <stop offset="0%" style="stop-color:#684fb5;stop-opacity:1" />
      <stop offset="100%" style="stop-color:#482f95;stop-opacity:1" />
    </linearGradient>
    <linearGradient id="heartGradient" x1="0%" y1="0%" x2="100%" y2="100%">
      <stop offset="0%" style="stop-color:#28eb76;stop-opacity:1" />
      <stop offset="100%" style="stop-color:#1a9e4f;stop-opacity:1" />
    </linearGradient>
  </defs>
  
  <!-- Background circle -->
  <circle cx="16" cy="16" r="15" fill="url(#bgGradient)" stroke="#231942" stroke-width="1"/>
  
  <!-- Heart symbol for medical/first aid theme -->
  <path d="M16 8c-1.5-2-4-2.5-6-1.5-2 1-3 3.5-3 6 0 4 4 8 9 12 5-4 9-8 9-12 0-2.5-1-5-3-6-2-1-4.5-0.5-6 1.5z" 
        fill="url(#heartGradient)" stroke="#fff" stroke-width="0.5"/>
  
  <!-- Cross symbol for medical theme -->
  <rect x="14.5" y="12" width="3" height="8" fill="#fff" rx="0.5"/>
  <rect x="11" y="14.5" width="10" height="3" fill="#fff" rx="0.5"/>
  
  <!-- Sparkle effect -->
  <circle cx="8" cy="8" r="1" fill="#fff" opacity="0.8"/>
  <circle cx="24" cy="10" r="0.8" fill="#28eb76" opacity="0.9"/>
  <circle cx="6" cy="22" r="0.6" fill="#28eb76" opacity="0.7"/>
</svg> 